# xmcd
#
# Track frame offsets:
#	150
#	17662
#	37494
#	55947
#	75272
#	95054
#	109180
#	126899
#	142442
#	157636
#
# Disc length: 2379 seconds
#
# Revision: 1
# Processed by: cddbd v1.5.2PL0 Copyright (c) Steve Scherf et al.
# Submitted via: audiograbber 1.83.01
#
DISCID=8509490a
DTITLE=Joanna Cotten - Joanna Cotten
DYEAR=2008
DGENRE=Country
TTITLE0=When Something Is Wrong
TTITLE1=5 Crackers and an 8-Ball
TTITLE2=Back To The Basics
TTITLE3=Lovin' This Day
TTITLE4=What I Ain't Got
TTITLE5=No Ordinary Love
TTITLE6=My Heart Breaks
TTITLE7=Easy To Forget
TTITLE8=Sexy Rich
TTITLE9=This Thing I Do
EXTD=
EXTT0=
EXTT1=
EXTT2=
EXTT3=
EXTT4=
EXTT5=
EXTT6=
EXTT7=
EXTT8=
EXTT9=
PLAYORDER=
